<?xml version="1.0" standalone="no"?>
<!DOCTYPE svg PUBLIC "-//W3C//DTD SVG 20010904//EN"
 "http://www.w3.org/TR/2001/REC-SVG-20010904/DTD/svg10.dtd">
<svg version="1.0" xmlns="http://www.w3.org/2000/svg"
 width="16.000000pt" height="16.000000pt" viewBox="0 0 16.000000 16.000000"
 preserveAspectRatio="xMidYMid meet">
<metadata>
Created by potrace 1.11, written by Peter Selinger 2001-2013
</metadata>
<g transform="translate(0.000000,16.000000) scale(0.006154,-0.006154)"
fill="#000000" stroke="none">
<path d="M1167 2384 c-2 -2 -22 -6 -45 -9 -22 -3 -52 -9 -66 -15 -15 -5 -26
-8 -26 -5 0 14 -278 -102 -300 -125 -3 -3 -30 -22 -62 -43 -64 -44 -248 -222
-248 -242 0 -3 -17 -31 -39 -63 -21 -31 -48 -75 -59 -97 -19 -38 -81 -207 -82
-223 0 -9 -11 -72 -17 -97 -12 -50 -11 -266 2 -340 58 -345 275 -641 585 -797
46 -24 87 -43 90 -44 3 0 43 -12 90 -27 110 -34 169 -42 315 -42 156 1 208 9
335 52 87 29 225 94 265 125 86 66 139 112 184 157 144 150 237 335 286 566
14 63 14 281 0 360 -63 373 -309 685 -655 830 -65 27 -148 52 -205 62 -16 3
-50 9 -75 13 -44 8 -265 11 -273 4z"/>
</g>
</svg>
